<?xml version="1.0" encoding="UTF-8" standalone="no"?><!DOCTYPE svg PUBLIC "-//W3C//DTD SVG 1.1//EN" "http://www.w3.org/Graphics/SVG/1.1/DTD/svg11.dtd"><svg width="100%" height="100%" viewBox="0 0 527 263" version="1.1" xmlns="http://www.w3.org/2000/svg" xmlns:xlink="http://www.w3.org/1999/xlink" xml:space="preserve" xmlns:serif="http://www.serif.com/" style="fill-rule:evenodd;clip-rule:evenodd;stroke-linecap:round;stroke-linejoin:round;"><path d="M511.497,11.202l-40.103,0" style="fill:none;stroke:#f5d45f;stroke-width:10.6px;"/><path d="M511.497,30.771l-73.968,0l-20.656,-20.657" style="fill:none;stroke:#f5d45f;stroke-width:10.6px;"/><path d="M511.497,50.341l-36.182,0" style="fill:none;stroke:#f5d45f;stroke-width:10.6px;"/><path d="M511.497,69.911l-150.608,0" style="fill:none;stroke:#f5d45f;stroke-width:10.6px;"/><path d="M155.386,89.481l-140.449,0" style="fill:none;stroke:#f5d45f;stroke-width:10.6px;"/><path d="M339.323,69.911l-185.185,0l-51.991,-51.991l-27.501,0" style="fill:none;stroke:#f5d45f;stroke-width:10.6px;"/><path d="M511.497,89.481l-268.242,0" style="fill:none;stroke:#f5d45f;stroke-width:10.6px;"/><path d="M511.497,109.051l-189.819,0" style="fill:none;stroke:#f5d45f;stroke-width:10.6px;"/><path d="M291.2,109.051l-116.03,0" style="fill:none;stroke:#f5d45f;stroke-width:10.6px;"/><path d="M511.497,128.621l-264.606,0" style="fill:none;stroke:#f5d45f;stroke-width:10.6px;"/><path d="M225.966,128.621l-46.519,0l-30.318,30.318l-93.198,0" style="fill:none;stroke:#f5d45f;stroke-width:10.6px;"/><path d="M511.497,148.192l-266.104,0l-92.984,92.984l-35.344,0" style="fill:none;stroke:#f5d45f;stroke-width:10.6px;"/><path d="M511.497,167.762l-56.144,0" style="fill:none;stroke:#f5d45f;stroke-width:10.6px;"/><path d="M320.965,167.762l-126.386,0" style="fill:none;stroke:#f5d45f;stroke-width:10.6px;"/><path d="M511.497,187.332l-82.522,0l-29.748,29.747l-81.827,0l-49.344,-49.344" style="fill:none;stroke:#f5d45f;stroke-width:10.6px;"/><path d="M511.497,206.902l-25.399,0l-45.984,45.984" style="fill:none;stroke:#f5d45f;stroke-width:10.6px;"/><path d="M175.17,69.911l38.819,38.819" style="fill:none;stroke:#f5d45f;stroke-width:10.6px;"/><path d="M79.993,89.481l97.85,97.851l204.791,0l58.697,-58.697" style="fill:none;stroke:#f5d45f;stroke-width:10.6px;"/></svg>