<?xml version="1.0" encoding="UTF-8" standalone="no"?><!DOCTYPE svg PUBLIC "-//W3C//DTD SVG 1.1//EN" "http://www.w3.org/Graphics/SVG/1.1/DTD/svg11.dtd"><svg width="100%" height="100%" viewBox="0 0 300 300" version="1.1" xmlns="http://www.w3.org/2000/svg" xmlns:xlink="http://www.w3.org/1999/xlink" xml:space="preserve" xmlns:serif="http://www.serif.com/" style="fill-rule:evenodd;clip-rule:evenodd;stroke-linejoin:round;stroke-miterlimit:1.41421;"><path d="M198.271,2.042c-18.382,8.51 -17.814,33.359 0.907,41.188c15.658,6.467 33.018,-6.014 31.657,-22.807c-1.248,-15.204 -18.495,-24.848 -32.564,-18.381Z" style="fill:#fff;fill-rule:nonzero;"/><path d="M132.801,56.278c-17.019,3.858 -31.656,12.481 -43.57,25.416c-22.693,24.849 -26.551,62.406 -9.304,91.793c5.333,9.077 19.062,22.466 28.48,27.912c4.198,2.497 12.027,6.014 17.246,7.716c8.17,2.723 11.46,3.063 24.395,3.063c17.133,0.114 26.778,-2.382 41.301,-10.552c9.531,-5.333 23.147,-18.608 28.82,-28.139c9.645,-16.452 13.162,-37.443 9.191,-55.825c-5.56,-26.55 -26.211,-49.47 -52.988,-58.661c-12.368,-4.311 -31.657,-5.446 -43.571,-2.723Zm27.572,45.386c23.488,6.921 31.884,36.082 15.432,53.896c-7.489,8.169 -14.978,11.46 -25.757,11.46c-7.262,0 -9.985,-0.568 -14.977,-3.064c-13.049,-6.808 -20.424,-19.629 -19.289,-33.245c2.042,-21.445 23.373,-35.401 44.591,-29.047Z" style="fill:#fff;fill-rule:nonzero;"/><path d="M204.851,224.66c-8.169,1.361 -120.726,31.429 -123.562,32.904c-7.603,3.972 -12.255,11.46 -12.255,19.743c0,2.61 0.568,6.127 1.248,8.056c2.837,7.489 13.049,14.524 21.105,14.637c2.156,0 31.657,-7.262 65.469,-16.112c66.944,-17.474 67.625,-17.814 71.936,-27.231c5.674,-12.595 -1.248,-28.367 -13.842,-31.09c-6.014,-1.361 -7.035,-1.475 -10.099,-0.907Z" style="fill:#fff;fill-rule:nonzero;"/></svg>