<?xml version="1.0" encoding="UTF-8" standalone="no"?><!DOCTYPE svg PUBLIC "-//W3C//DTD SVG 1.1//EN" "http://www.w3.org/Graphics/SVG/1.1/DTD/svg11.dtd"><svg width="100%" height="100%" viewBox="0 0 300 300" version="1.1" xmlns="http://www.w3.org/2000/svg" xmlns:xlink="http://www.w3.org/1999/xlink" xml:space="preserve" xmlns:serif="http://www.serif.com/" style="fill-rule:evenodd;clip-rule:evenodd;stroke-linejoin:round;stroke-miterlimit:1.41421;"><g><path d="M147.783,2.821c-0.806,1.451 -5.561,9.35 -10.558,17.49c-4.998,8.221 -12.251,20.15 -16.12,26.678c-3.869,6.529 -7.254,12.09 -7.496,12.252c-0.242,0.241 -0.967,1.37 -1.612,2.498c-3.305,5.803 -4.675,8.221 -11.123,18.699c-3.788,6.287 -7.657,12.574 -8.463,13.944c-0.806,1.451 -4.594,7.738 -8.463,13.944c-3.868,6.286 -7.657,12.573 -8.463,14.024c-0.886,1.37 -4.836,8.06 -8.946,14.75c-4.03,6.77 -8.302,14.185 -9.35,16.523l-2.015,4.271l16.281,0.242c8.866,0.081 16.443,-0.08 16.765,-0.483c0.564,-0.565 12.493,-19.909 16.039,-26.034c0.806,-1.37 5.159,-8.624 9.753,-16.039c4.514,-7.496 11.606,-19.102 15.636,-25.873c15.878,-26.436 19.344,-31.675 20.634,-31.998c0.725,-0.161 1.37,0.161 1.37,0.645c0,0.484 1.29,2.902 2.902,5.4c1.612,2.499 3.627,5.884 4.513,7.415c0.967,1.612 4.352,7.335 7.576,12.654c25.147,41.267 36.593,60.128 37.882,62.465c0.484,0.806 2.338,3.788 4.191,6.69l3.224,5.319l32.804,0l-1.128,-2.821c-1.612,-3.707 -8.141,-15.233 -14.508,-25.55c-2.902,-4.674 -6.529,-10.558 -7.979,-13.137c-2.982,-5.159 -2.982,-5.078 -9.189,-14.911c-2.418,-3.869 -4.433,-7.254 -4.433,-7.496c0,-0.161 -1.612,-2.982 -3.627,-6.126c-2.015,-3.143 -4.594,-7.415 -5.722,-9.51c-1.129,-2.096 -2.338,-4.03 -2.579,-4.272c-0.242,-0.161 -2.177,-3.224 -4.192,-6.77c-2.095,-3.466 -4.11,-6.932 -4.594,-7.738c-3.868,-6.367 -6.931,-11.606 -7.898,-13.38c-0.645,-1.128 -1.612,-2.659 -2.177,-3.385c-0.967,-1.128 -2.015,-2.821 -7.254,-11.928c-6.448,-11.123 -19.021,-31.273 -19.585,-31.273c-0.403,0 -1.37,1.29 -2.096,2.821Z" style="fill:#f4d368;fill-rule:nonzero;"/><path d="M47.84,185.54c-1.209,2.015 -1.37,16.281 -0.323,24.341c2.821,21.036 9.995,37.64 23.374,53.84c4.997,6.045 6.851,7.899 14.428,14.025c5.48,4.433 19.585,13.46 21.117,13.379c0.241,0 2.015,0.806 3.949,1.693c4.352,2.015 12.815,4.594 19.666,6.125c3.144,0.645 10.881,1.129 20.311,1.048c13.057,0 16.362,-0.242 22.891,-1.934c4.191,-1.048 8.382,-2.257 9.269,-2.66c0.967,-0.322 3.062,-1.128 4.674,-1.773c2.983,-1.048 15.878,-7.496 19.022,-9.43c3.224,-2.015 16.12,-12.816 19.344,-16.281c8.704,-9.269 17.248,-23.535 21.6,-36.109c2.257,-6.609 3.063,-9.752 5.159,-20.875c1.128,-5.723 1.128,-21.359 0.08,-24.261l-0.806,-2.176l-41.428,0c-46.022,0 -41.992,-0.483 -45.619,5.965c-0.887,1.612 -4.191,7.092 -7.335,12.17c-3.143,5.078 -5.722,9.591 -5.803,9.994c-0.08,0.403 15.233,0.726 34.336,0.726l34.416,-0.081l0,2.338c0,7.657 -10.801,26.597 -19.667,34.657c-12.815,11.445 -22.487,16.281 -39.091,19.344c-25.066,4.675 -53.679,-6.851 -69.557,-27.968c-3.304,-4.272 -8.946,-14.83 -11.364,-21.117c-2.338,-6.206 -3.95,-20.069 -3.144,-28.371c0.323,-3.466 0.403,-6.609 0.161,-6.931c-0.725,-1.209 -28.935,-0.806 -29.66,0.322Z" style="fill:#1fc3a7;fill-rule:nonzero;"/></g></svg>